<?xml version="1.0" encoding="UTF-8"?><svg id="uuid-48ba2b39-0675-43a0-8fbe-9716f5e19df6" xmlns="http://www.w3.org/2000/svg" viewBox="0 0 1000 1000"><defs><style>.uuid-c0981c2a-c033-477c-9295-c9b0b768fb4f{stroke:#000;stroke-miterlimit:10;stroke-width:.5px;}.uuid-b632a374-eeae-472d-ac8f-2f9c329240f7{font-family:HelveticaNeue-CondensedBlack, 'Helvetica Neue';font-size:120px;font-weight:800;}</style></defs><path d="M108.5,565.6c-3.3-5.7-7.3-10.1-11.9-13.2-4.6-3.1-9.5-5.1-14.5-5.9-5.1-.9-8.9-1.3-11.5-1.3v-88.4c2.6,0,6.5-.3,11.5-1,5.1-.7,9.9-2.3,14.5-4.9s8.6-6.5,11.9-11.5c3.3-5.1,4.9-12,4.9-20.8v-123.4c0-30.3,8.5-53,25.4-68,16.9-14.9,41.5-22.4,73.6-22.4h79.2v83.1h-36.9c-7,0-12.5,1.3-16.5,4-4,2.6-6.9,5.9-8.9,9.9-2,4-3.3,8.4-4,13.2-.7,4.8-1,9.5-1,13.9v110.8c0,12.3-2.6,22.3-7.9,30-5.3,7.7-11.7,13.8-19.1,18.1-7.5,4.4-15.3,7.5-23.4,9.2-8.1,1.8-15.1,2.9-20.8,3.3v1.3c5.7.4,12.6,1.3,20.8,2.6,8.1,1.3,15.9,4.3,23.4,8.9,7.5,4.6,13.9,11.2,19.1,19.8,5.3,8.6,7.9,20.3,7.9,35.3v104.9c0,3.1.3,7,1,11.9.7,4.8,2,9.2,4,13.2,2,4,4.9,7.3,8.9,9.9,4,2.6,9.5,4,16.5,4h36.9v83.1h-79.2c-32.1,0-56.6-7.5-73.6-22.4-16.9-15-25.4-37.6-25.4-68v-115.5c0-10.1-1.7-18-4.9-23.8Z"/><path class="uuid-c0981c2a-c033-477c-9295-c9b0b768fb4f" d="M304.6,288.6v-83.8h388.6v83.8h-132.9v506.7h-122.7v-506.7h-133Z"/><path d="M743.3,712.1c7,0,12.5-1.3,16.5-4,4-2.6,6.9-5.9,8.9-9.9,2-4,3.3-8.4,4-13.2.7-4.8,1-8.8,1-11.9v-110.8c0-12.3,2.6-22.3,7.9-30,5.3-7.7,11.6-13.7,19.1-18.1,7.5-4.4,15.3-7.5,23.4-9.2,8.1-1.8,15.1-2.9,20.8-3.3v-1.3c-5.7-.4-12.7-1.3-20.8-2.6-8.1-1.3-15.9-4.3-23.4-8.9-7.5-4.6-13.9-11.2-19.1-19.8-5.3-8.6-7.9-20.3-7.9-35.3v-104.9c0-4.4-.3-9-1-13.9-.7-4.8-2-9.2-4-13.2-2-4-4.9-7.3-8.9-9.9-4-2.6-9.5-4-16.5-4h-36.9v-83.1h79.2c32.1,0,56.6,7.5,73.6,22.4,16.9,15,25.4,37.6,25.4,68v117.4c0,9.7,1.7,17.5,4.9,23.4,3.3,5.9,7.3,10.5,11.9,13.5,4.6,3.1,9.5,5.1,14.5,5.9,5,.9,9.6,1.3,13.5,1.3v88.4c-4,0-8.5.4-13.5,1.3-5.1.9-9.9,2.6-14.5,5.3-4.6,2.6-8.6,6.5-11.9,11.5-3.3,5.1-4.9,11.8-4.9,20.1v121.4c0,30.3-8.5,53-25.4,68-16.9,14.9-41.5,22.4-73.6,22.4h-79.2v-83.1h36.9Z"/><text class="uuid-b632a374-eeae-472d-ac8f-2f9c329240f7" transform="translate(-512.2 265)"><tspan x="0" y="0">{T}</tspan></text></svg>